<svg width="25" height="25" viewBox="0 0 25 25" fill="none" xmlns="http://www.w3.org/2000/svg">
<path d="M15.4688 15.7967C14.6852 15.3759 13.1843 14.4627 11.5522 12.9065C9.91972 11.3499 8.95117 9.90822 8.50275 9.15401L11.1355 6.61131L4.48758 0.234467L1.21247 3.33677C-0.0313129 4.52255 -0.353464 6.32687 0.41043 7.82655C1.57601 10.115 3.72693 13.5689 7.35357 17.0271C10.9804 20.4851 14.6026 22.5361 17.0027 23.6474C17.5712 23.911 18.1816 24.0388 18.7881 24.0388C19.8589 24.0388 20.9173 23.6398 21.7113 22.8827L24.9714 19.7635L18.1888 13.2855L15.4688 15.7967ZM20.3321 21.5692C19.6756 22.1945 18.68 22.3578 17.8543 21.9755C15.5887 20.9263 12.1672 18.9882 8.73201 15.7127C5.29687 12.4373 3.26421 9.17474 2.16386 7.01451C1.76255 6.22702 1.93421 5.27713 2.58843 4.65332L4.47881 2.86264L8.39155 6.61586L6.1487 8.78209L6.41935 9.36152C6.46341 9.45573 7.52714 11.6973 10.1738 14.2209C12.8221 16.7461 15.1531 17.7393 15.251 17.7804L15.8506 18.0317L18.1658 15.8942L22.2183 19.7647L20.3321 21.5692ZM18.0242 8.98996L13.4363 4.61549L18.0242 0.240832L19.4027 1.55519L17.2165 3.63958H22.0642C23.6797 3.63958 24.9941 4.89029 24.9941 6.4278L25 11.3057L23.0507 11.3081L23.0448 6.4289C23.0448 5.9153 22.6049 5.49846 22.0642 5.49846H17.119L19.4027 7.67578L18.0242 8.98996Z" fill="black"/>
</svg>
