<svg width="300" height="87" viewBox="0 0 300 87" fill="none" xmlns="http://www.w3.org/2000/svg">
<path d="M52.9267 26.0456L27.5118 83.2812C32.6302 85.3751 38.2414 86.5332 44.121 86.5332C49.8782 86.5332 55.3708 85.4178 60.402 83.4068L54.0841 26.2206C53.6877 26.1957 53.2995 26.1432 52.9267 26.0456ZM56.2641 25.9184L65.2061 81.143C75.1513 75.6893 82.7143 66.4951 85.982 55.4762L57.6626 25.2514C57.2354 25.5388 56.7595 25.7525 56.2641 25.9184ZM60.2836 20.6302C60.239 21.7556 59.8759 22.7976 59.2774 23.6696L87.2343 49.9646C87.582 47.7727 87.7646 45.5228 87.7646 43.2343C87.7646 33.9432 84.8051 25.344 79.7841 18.2934L60.2836 20.6302ZM54.5267 14.5295C56.9308 14.5778 58.9677 16.0589 59.8415 18.1321L76.5005 14.208C69.0933 6.08034 58.6236 0.75808 46.8938 0.0279922L53.0431 14.7045C53.5205 14.5926 54.0103 14.5198 54.5267 14.5295ZM50.6935 15.8584L41.5583 0.0142517C29.6765 0.694481 19.0749 6.09 11.6136 14.3484L48.7498 18.7655C49.0879 17.602 49.7752 16.5987 50.6935 15.8584ZM48.5577 21.025L8.01143 18.9065C3.25601 25.841 0.471954 34.2169 0.471954 43.2343C0.471954 45.669 0.683491 48.0557 1.07592 50.3774L48.8958 22.4908C48.7151 22.0288 48.6122 21.5317 48.5577 21.025ZM50.0647 24.3503L2.28345 55.5742C5.55308 66.5048 13.0521 75.6259 22.9025 81.07L50.9481 25.1344C50.6296 24.9008 50.3345 24.6388 50.0647 24.3503ZM221.664 60.9105H242.436V53.9469H229.105V46.4145H240.59V39.6454H229.105V32.3218H242.436V25.5002H221.664V60.9105ZM246.538 32.2154H254.175V60.9105H261.563V32.2154H269.204V25.5002H246.538V32.2154ZM292.951 25.5002L282.741 46.0584H282.643V25.5002H275.256V60.9105H282.231L292.18 41.6333H292.234V60.9105H299.669V25.5002H292.951ZM124.251 28.1972C123.241 27.2819 122.028 26.6057 120.605 26.1626C119.187 25.7194 117.639 25.5002 115.967 25.5002H104.634V60.9105H112.069V47.9921H116.374C118.088 47.9921 119.624 47.7188 120.993 47.1792C122.357 46.6339 123.52 45.8733 124.482 44.8906C125.435 43.9064 126.175 42.714 126.686 41.3252C127.196 39.9382 127.456 38.3948 127.456 36.7C127.456 34.7562 127.171 33.0921 126.608 31.6838C126.043 30.2775 125.258 29.1135 124.251 28.1972ZM118.917 40.1037C118.076 40.7856 117.11 41.1211 116.016 41.1211H112.069V32.3172H115.967C117.267 32.3172 118.293 32.6484 119.044 33.3113C119.795 33.9722 120.173 35.0681 120.173 36.5978C120.173 38.2527 119.75 39.4261 118.917 40.1037ZM153.048 28.8362C152.126 27.7637 150.942 26.8967 149.509 26.2399C148.071 25.5775 146.378 25.2473 144.434 25.2473C142.344 25.2473 140.576 25.5928 139.124 26.2882C137.666 26.9853 136.478 27.8715 135.555 28.9618C134.633 30.0481 133.969 31.26 133.557 32.5991C133.146 33.9392 132.939 35.2727 132.939 36.5978V49.2096C132.939 50.8066 133.155 52.3361 133.583 53.7909C134.01 55.2526 134.686 56.5279 135.61 57.6337C136.532 58.7393 137.72 59.6062 139.173 60.2533C140.625 60.8952 142.377 61.2224 144.434 61.2224C146.103 61.2224 147.638 60.9546 149.019 60.4329C150.407 59.9069 151.599 59.1423 152.611 58.1401C153.617 57.1408 154.408 55.9345 154.972 54.5266C155.536 53.1241 155.817 51.5368 155.817 49.7742V36.5978C155.817 35.205 155.586 33.8313 155.124 32.4734C154.657 31.115 153.97 29.9021 153.048 28.8362ZM148.326 50.2806C148.326 51.4692 147.943 52.3982 147.173 53.08C146.402 53.7577 145.489 54.0932 144.434 54.0932C142.961 54.0932 141.907 53.6597 141.273 52.7735C140.641 51.893 140.326 50.7722 140.326 49.418V36.2858C140.326 35.8811 140.404 35.4477 140.557 34.9908C140.714 34.5329 140.953 34.1091 141.273 33.7199C141.602 33.3307 142.019 33.0086 142.534 32.7507C143.045 32.4968 143.677 32.3711 144.434 32.3711C145.18 32.3711 145.804 32.5177 146.304 32.8046C146.794 33.0921 147.202 33.4426 147.507 33.8415C147.815 34.2551 148.027 34.6789 148.149 35.1165C148.268 35.5596 148.326 35.9544 148.326 36.2858V50.2806ZM170.634 34.9908C170.772 34.5329 170.992 34.1091 171.302 33.7199C171.611 33.3347 172.023 33.0086 172.533 32.7507C173.049 32.4968 173.682 32.3711 174.432 32.3711C175.149 32.3711 175.762 32.5065 176.278 32.7797C176.793 33.0529 177.22 33.3734 177.559 33.7448C177.904 34.1188 178.148 34.5329 178.306 34.9908C178.457 35.4477 178.57 35.8486 178.639 36.1878L185.663 34.0994C185.422 32.9496 185.014 31.8354 184.43 30.7644C183.851 29.6975 183.096 28.7532 182.173 27.9387C181.249 27.1262 180.14 26.4785 178.84 25.9876C177.539 25.4905 176.077 25.2473 174.432 25.2473C172.347 25.2473 170.575 25.5928 169.122 26.2882C167.669 26.9853 166.486 27.8715 165.584 28.9618C164.68 30.0481 164.023 31.26 163.611 32.5991C163.197 33.9392 162.997 35.2727 162.997 36.5978V49.2096C162.997 50.8066 163.207 52.3361 163.64 53.7909C164.067 55.2526 164.729 56.5279 165.632 57.6337C166.541 58.7393 167.718 59.6062 169.172 60.2575C170.624 60.8952 172.376 61.2224 174.432 61.2224C177.339 61.2224 179.803 60.4427 181.814 58.88C183.837 57.3217 185.098 55.1698 185.614 52.4188L178.531 50.3829C178.393 51.5368 177.933 52.4425 177.152 53.0993C176.366 53.7675 175.459 54.0932 174.432 54.0932C172.966 54.0932 171.925 53.6555 171.331 52.7735C170.731 51.893 170.432 50.7722 170.432 49.418V36.2858C170.432 35.8811 170.496 35.4477 170.634 34.9908ZM199.563 34.9908C199.695 34.5329 199.916 34.1091 200.23 33.7199C200.534 33.3347 200.946 33.0086 201.462 32.7507C201.973 32.4968 202.606 32.3711 203.357 32.3711C204.074 32.3711 204.687 32.5065 205.202 32.7797C205.712 33.0529 206.139 33.3734 206.484 33.7448C206.827 34.1188 207.077 34.5329 207.229 34.9908C207.381 35.4477 207.495 35.8486 207.563 36.1878L214.586 34.0994C214.346 32.9496 213.938 31.8354 213.355 30.7644C212.775 29.6975 212.019 28.7532 211.101 27.9387C210.174 27.1262 209.064 26.4785 207.769 25.9876C206.464 25.4905 205 25.2473 203.357 25.2473C201.27 25.2473 199.499 25.5928 198.047 26.2882C196.593 26.9853 195.416 27.8715 194.507 28.9618C193.604 30.0481 192.946 31.26 192.534 32.5991C192.127 33.9392 191.92 35.2727 191.92 36.5978V49.2096C191.92 50.8066 192.136 52.3361 192.564 53.7909C192.991 55.2526 193.653 56.5279 194.562 57.6337C195.469 58.7393 196.647 59.6062 198.099 60.2575C199.553 60.8952 201.305 61.2224 203.357 61.2224C206.262 61.2224 208.726 60.4427 210.738 58.88C212.761 57.3217 214.022 55.1698 214.537 52.4188L207.454 50.3829C207.323 51.5368 206.86 52.4425 206.076 53.0993C205.286 53.7675 204.383 54.0932 203.357 54.0932C201.889 54.0932 200.849 53.6555 200.254 52.7735C199.656 51.893 199.356 50.7722 199.356 49.418V36.2858C199.356 35.8811 199.425 35.4477 199.563 34.9908Z" fill="#0066B3"/>
</svg>
